<?xml version="1.0" encoding="utf-8"?>
<!-- Svg Vector Icons : http://www.onlinewebfonts.com/icon -->
<!DOCTYPE svg PUBLIC "-//W3C//DTD SVG 1.1//EN" "http://www.w3.org/Graphics/SVG/1.1/DTD/svg11.dtd">
<svg version="1.1" xmlns="http://www.w3.org/2000/svg" xmlns:xlink="http://www.w3.org/1999/xlink" x="0px" y="0px" viewBox="0 0 1000 1000" enable-background="new 0 0 1000 1000" xml:space="preserve">
<metadata> Svg Vector Icons : http://www.onlinewebfonts.com/icon </metadata>
<g><path d="M871.6,379.8l-366.8-187L628.1,40.3L990,235.5L871.6,379.8L871.6,379.8z M10,232.2L380,40.3l118.5,152.5l-363.6,187L10,232.2L10,232.2z M498.3,555.8l-64.9,185.3L69.8,555.8l64.9-175.5L498.3,555.8L498.3,555.8z M440.6,800.1l54.8-144.3v303.9L111.9,780.1l1.2-147.3L440.6,800.1L440.6,800.1z M944.5,554.2L568,739.5l-61.7-183.7l365.1-175.5L944.5,554.2L944.5,554.2z M891.1,634v146.1L508.8,959.7V655.8l50.8,144.7L891.1,634z"/></g>
</svg>